<?xml version="1.0" standalone="no"?>
<!DOCTYPE svg PUBLIC "-//W3C//DTD SVG 20010904//EN"
 "http://www.w3.org/TR/2001/REC-SVG-20010904/DTD/svg10.dtd">
<svg version="1.0" xmlns="http://www.w3.org/2000/svg"
 width="512.000000pt" height="512.000000pt" viewBox="0 0 512.000000 512.000000"
 preserveAspectRatio="xMidYMid meet">
<metadata>
Created by potrace 1.14, written by Peter Selinger 2001-2017
</metadata>
<g transform="translate(0.000000,512.000000) scale(0.100000,-0.100000)"
fill="#000000" stroke="none">
<path d="M554 3797 c-2 -7 -4 -49 -2 -93 l3 -79 30 0 30 0 0 90 0 90 -28 3
c-16 2 -29 -2 -33 -11z"/>
<path d="M162 3638 c-21 -21 -14 -38 40 -94 40 -43 57 -54 77 -52 47 5 40 44
-20 104 -54 55 -75 64 -97 42z"/>
<path d="M911 3596 c-39 -40 -52 -59 -49 -77 6 -42 44 -37 95 13 57 55 67 73
53 98 -17 32 -42 24 -99 -34z"/>
<path d="M470 3503 c-63 -23 -151 -113 -173 -177 -39 -115 -15 -227 72 -331
25 -31 48 -71 58 -105 8 -30 20 -61 25 -67 7 -9 47 -13 133 -13 86 0 125 4
132 13 5 6 17 37 26 67 9 32 34 76 58 105 72 87 84 118 84 220 0 78 -4 97 -27
141 -34 64 -105 128 -165 148 -59 20 -164 19 -223 -1z m162 -357 c30 -22 40
-64 23 -94 -8 -15 -20 -39 -27 -54 -10 -22 -19 -28 -43 -28 -27 0 -34 6 -59
55 -25 50 -27 59 -16 86 7 16 20 34 29 39 23 13 73 12 93 -4z"/>
<path d="M12 3251 c-8 -5 -12 -21 -10 -37 l3 -29 82 -3 c73 -2 83 -1 93 17 8
17 6 25 -10 41 -16 16 -33 20 -82 20 -35 0 -69 -4 -76 -9z"/>
<path d="M1000 3242 c-19 -16 -21 -22 -11 -40 10 -20 20 -22 89 -22 80 0 102
9 102 42 0 26 -31 38 -98 38 -43 0 -66 -5 -82 -18z"/>
<path d="M4125 2989 c-173 -33 -308 -103 -439 -228 -168 -162 -257 -368 -258
-601 -2 -336 178 -625 478 -771 140 -68 208 -81 467 -86 253 -6 362 4 488 43
126 40 235 136 254 226 13 55 -9 54 -73 -5 -33 -31 -75 -63 -94 -72 -26 -13
-16 -1 43 57 93 90 129 157 129 240 0 44 -3 58 -15 58 -19 0 -51 -35 -66 -74
-22 -55 -65 -110 -114 -145 l-48 -34 63 79 c105 131 151 262 97 272 -27 5 -53
-23 -93 -98 -19 -37 -53 -84 -76 -106 l-40 -39 37 50 c56 74 87 149 83 204 -6
85 -56 56 -129 -75 -45 -82 -76 -112 -160 -155 -60 -30 -99 -37 -99 -19 0 16
25 62 81 147 40 62 49 84 47 113 -5 56 -36 53 -106 -13 -58 -55 -204 -157
-279 -196 -48 -24 -83 -27 -83 -7 0 18 75 86 128 116 43 24 54 40 27 40 -8 0
-77 -27 -152 -59 -102 -44 -139 -56 -141 -46 -7 28 20 55 113 111 52 32 95 64
95 71 0 7 -2 13 -5 13 -2 0 -62 -23 -132 -51 -171 -69 -183 -72 -190 -52 -10
26 45 66 165 118 107 46 134 65 94 65 -10 0 -73 -13 -140 -30 -146 -36 -162
-37 -162 -11 0 28 44 59 109 77 142 40 197 60 254 94 71 43 79 57 40 66 -134
29 -183 60 -183 114 0 28 3 30 35 30 19 0 142 -14 273 -31 336 -44 485 -32
567 45 27 26 34 41 40 92 20 180 -81 356 -252 437 l-68 32 -280 2 c-154 1
-302 -3 -330 -8z"/>
<path d="M1599 2961 c-92 -17 -138 -58 -159 -142 -8 -30 -10 -248 -8 -709 3
-658 3 -665 24 -705 12 -22 30 -48 41 -57 38 -35 128 -48 318 -48 100 0 184 2
186 4 2 2 3 49 1 103 l-3 98 -51 30 c-68 41 -167 149 -206 227 -63 125 -82
280 -42 331 27 34 78 44 118 23 40 -21 48 -37 55 -112 15 -144 97 -263 225
-326 62 -31 74 -33 167 -33 93 0 105 2 167 33 128 63 210 182 225 326 7 75 15
91 55 112 40 21 91 11 118 -23 40 -51 21 -206 -42 -331 -38 -77 -130 -178
-200 -223 -29 -18 -56 -38 -61 -44 -4 -5 -6 -50 -5 -100 l3 -90 184 -3 c141
-2 198 1 244 13 69 18 90 33 121 90 21 39 21 49 21 465 -1 408 -2 428 -23 505
-56 203 -177 377 -332 480 -88 59 -178 92 -289 107 -160 21 -288 -19 -408
-127 l-63 -57 0 35 c0 48 -37 98 -92 125 -38 19 -68 25 -145 27 -54 2 -119 0
-144 -4z m753 -607 l-10 -34 53 -26 c58 -27 102 -71 137 -137 18 -34 23 -58
23 -127 0 -76 -3 -91 -30 -139 -72 -130 -218 -186 -361 -138 -66 23 -122 71
-159 138 -27 48 -30 63 -30 139 0 69 5 93 23 127 33 63 75 107 129 134 26 13
58 37 71 52 14 15 46 39 71 52 26 13 54 31 62 41 13 16 15 14 23 -15 6 -20 5
-44 -2 -67z"/>
<path d="M455 2693 c-121 -44 -204 -118 -259 -233 l-31 -65 0 -385 0 -385 32
-68 c157 -332 608 -337 771 -8 l37 75 3 355 c4 403 0 435 -68 539 -45 70 -106
122 -186 159 -78 36 -221 43 -299 16z"/>
</g>
</svg>
